<svg width="65" height="61" viewBox="0 0 65 61" fill="none" xmlns="http://www.w3.org/2000/svg">
<path d="M64.8647 55.0601C64.8647 57.8215 62.6262 60.0601 59.8647 60.0601L4.99988 60.0601C2.23846 60.0601 -0.00012207 57.8215 -0.00012207 55.0601V5.06006C-0.00012207 2.29863 2.23845 0.0600586 4.99988 0.0600586L59.8647 0.0600586C62.6262 0.0600586 64.8647 2.29863 64.8647 5.06006V55.0601Z" fill="white"/>
<path fill-rule="evenodd" clip-rule="evenodd" d="M31.3639 40.9401C31.5461 40.8609 31.7115 40.7448 31.8508 40.5985C31.9904 40.4526 32.1012 40.2792 32.1768 40.0883C32.2524 39.8974 32.2913 39.6928 32.2913 39.4862C32.2913 39.2795 32.2524 39.0749 32.1768 38.884C32.1012 38.6931 31.9904 38.5198 31.8508 38.3738L25.8231 32.0601H42.9737C43.3981 32.0601 43.805 31.8493 44.1051 31.4743C44.4052 31.0992 44.5737 30.5905 44.5737 30.0601C44.5737 29.5296 44.4052 29.0209 44.1051 28.6458C43.805 28.2708 43.3981 28.0601 42.9737 28.0601H25.8223L31.8508 21.7455C32.1323 21.4505 32.2905 21.0503 32.2905 20.6331C32.2905 20.2159 32.1323 19.8158 31.8508 19.5208C31.5692 19.2258 31.1874 19.0601 30.7893 19.0601C30.3911 19.0601 30.0093 19.2258 29.7277 19.5208L20.7317 28.9473C20.5921 29.0933 20.4813 29.2666 20.4058 29.4575C20.3302 29.6484 20.2913 29.853 20.2913 30.0596C20.2913 30.2663 20.3302 30.4709 20.4058 30.6618C20.4813 30.8527 20.5921 31.026 20.7317 31.172L29.7277 40.5985C29.867 40.7448 30.0325 40.8609 30.2146 40.9401C30.3968 41.0193 30.592 41.0601 30.7893 41.0601C30.9865 41.0601 31.1817 41.0193 31.3639 40.9401Z" fill="#20113D"/>
<path d="M59.8647 59.0601L4.99988 59.0601V61.0601L59.8647 61.0601V59.0601ZM0.999878 55.0601L0.999878 5.06006H-1.00012V55.0601H0.999878ZM4.99988 1.06006L59.8647 1.06006V-0.939941L4.99988 -0.939941V1.06006ZM63.8647 5.06006L63.8647 55.0601H65.8647V5.06006H63.8647ZM59.8647 1.06006C62.0739 1.06006 63.8647 2.85092 63.8647 5.06006H65.8647C65.8647 1.74635 63.1785 -0.939941 59.8647 -0.939941V1.06006ZM0.999878 5.06006C0.999878 2.85092 2.79074 1.06006 4.99988 1.06006V-0.939941C1.68617 -0.939941 -1.00012 1.74635 -1.00012 5.06006H0.999878ZM4.99988 59.0601C2.79074 59.0601 0.999878 57.2692 0.999878 55.0601H-1.00012C-1.00012 58.3738 1.68617 61.0601 4.99988 61.0601V59.0601ZM59.8647 61.0601C63.1785 61.0601 65.8647 58.3738 65.8647 55.0601H63.8647C63.8647 57.2692 62.0739 59.0601 59.8647 59.0601V61.0601Z" fill="white"/>
</svg>
