<svg width="22" height="22" viewBox="0 0 22 22" fill="none" xmlns="http://www.w3.org/2000/svg">
<path d="M10.9326 12.0113C11.5999 12.0113 12.2523 11.8189 12.8071 11.4583C13.362 11.0978 13.7944 10.5854 14.0498 9.98594C14.3052 9.38643 14.372 8.72676 14.2418 8.09033C14.1116 7.4539 13.7903 6.86931 13.3184 6.41047C12.8466 5.95163 12.2454 5.63915 11.5909 5.51256C10.9364 5.38597 10.258 5.45094 9.64144 5.69926C9.02492 5.94758 8.49797 6.3681 8.12723 6.90764C7.75649 7.44718 7.55861 8.0815 7.55861 8.7304C7.55861 9.60054 7.91408 10.435 8.54683 11.0503C9.17958 11.6656 10.0378 12.0113 10.9326 12.0113ZM10.9326 7.63677C11.1551 7.63677 11.3725 7.70091 11.5575 7.82108C11.7424 7.94125 11.8866 8.11205 11.9717 8.31189C12.0568 8.51172 12.0791 8.73161 12.0357 8.94375C11.9923 9.1559 11.8852 9.35076 11.7279 9.50371C11.5706 9.65666 11.3702 9.76081 11.152 9.80301C10.9339 9.84521 10.7077 9.82355 10.5022 9.74078C10.2967 9.658 10.1211 9.51783 9.99749 9.33799C9.87391 9.15814 9.80795 8.9467 9.80795 8.7304C9.80795 8.44035 9.92644 8.16218 10.1374 7.95709C10.3483 7.75199 10.6343 7.63677 10.9326 7.63677ZM21.7182 17.6544C21.1691 15.8833 20.1668 14.2766 18.8053 12.9846C19.5632 11.6526 19.9506 10.1514 19.9292 8.62934C19.9078 7.10723 19.4783 5.6169 18.6832 4.30559C17.8882 2.99428 16.755 1.90738 15.3957 1.15228C14.0365 0.397174 12.4981 0 10.9326 0C9.36716 0 7.82879 0.397174 6.46951 1.15228C5.11022 1.90738 3.97707 2.99428 3.18201 4.30559C2.38695 5.6169 1.9575 7.10723 1.93608 8.62934C1.91467 10.1514 2.30204 11.6526 3.05991 12.9846C1.69041 14.2723 0.683594 15.8802 0.135765 17.6544C-0.0106337 18.1409 -0.0390933 18.6538 0.0526199 19.1529C0.144333 19.6519 0.353724 20.1235 0.664361 20.5306C0.980855 20.9446 1.39326 21.2801 1.86811 21.51C2.34296 21.74 2.86687 21.8578 3.39732 21.8539H18.4679C18.9965 21.8561 19.5182 21.7374 19.9909 21.5076C20.4637 21.2777 20.8743 20.9431 21.1896 20.5306C21.5003 20.1235 21.7097 19.6519 21.8014 19.1529C21.8931 18.6538 21.8646 18.1409 21.7182 17.6544ZM10.9326 2.16864C12.2673 2.16864 13.5719 2.55348 14.6816 3.2745C15.7913 3.99551 16.6563 5.02032 17.167 6.21932C17.6777 7.41833 17.8114 8.73768 17.551 10.0105C17.2906 11.2834 16.6479 12.4526 15.7042 13.3703C14.7605 14.2879 13.5581 14.9129 12.2491 15.1661C10.9401 15.4193 9.58331 15.2893 8.35026 14.7927C7.11722 14.296 6.06332 13.455 5.32184 12.3759C4.58035 11.2968 4.18459 10.0282 4.18459 8.7304C4.18459 6.99011 4.89554 5.3211 6.16104 4.09054C7.42654 2.85997 9.14293 2.16864 10.9326 2.16864ZM19.3902 19.2183C19.2844 19.3591 19.1454 19.4733 18.985 19.5513C18.8246 19.6293 18.6473 19.6688 18.4679 19.6667H3.39732C3.21796 19.6688 3.04067 19.6293 2.88024 19.5513C2.71981 19.4733 2.5809 19.3591 2.47508 19.2183C2.37396 19.0828 2.30616 18.9266 2.27691 18.7616C2.24766 18.5967 2.25775 18.4274 2.30638 18.2668C2.7101 16.9449 3.43535 15.737 4.42077 14.7453C5.26101 15.6023 6.27139 16.2845 7.39071 16.7506C8.51002 17.2167 9.71499 17.457 10.9326 17.457C12.1503 17.457 13.3552 17.2167 14.4745 16.7506C15.5939 16.2845 16.6042 15.6023 17.4445 14.7453C18.4299 15.737 19.1551 16.9449 19.5589 18.2668C19.6075 18.4274 19.6176 18.5967 19.5883 18.7616C19.5591 18.9266 19.4913 19.0828 19.3902 19.2183Z" fill="#1A5A5A"/>
</svg>
