<svg width="60" height="60" viewBox="0 0 60 60" fill="none" xmlns="http://www.w3.org/2000/svg">
<path d="M59.9995 54.9824C59.9995 57.7438 57.7609 59.9824 54.9995 59.9824L4.99951 59.9824C2.23809 59.9824 -0.000488281 57.7438 -0.000488281 54.9824L-0.000488281 4.98242C-0.000488281 2.221 2.23809 -0.0175781 4.99951 -0.0175781L54.9995 -0.0175781C57.7609 -0.0175781 59.9995 2.221 59.9995 4.98242L59.9995 54.9824Z" fill="#20113D"/>
<path fill-rule="evenodd" clip-rule="evenodd" d="M28.9308 40.8625C29.1129 40.7832 29.2784 40.6672 29.4177 40.5209C29.5573 40.3749 29.6681 40.2015 29.7437 40.0107C29.8193 39.8198 29.8582 39.6152 29.8582 39.4085C29.8582 39.2019 29.8193 38.9973 29.7437 38.8064C29.6681 38.6155 29.5573 38.4421 29.4177 38.2962L23.39 31.9824L40.5406 31.9824C40.965 31.9824 41.3719 31.7717 41.672 31.3966C41.9721 31.0216 42.1406 30.5129 42.1406 29.9824C42.1406 29.452 41.9721 28.9433 41.672 28.5682C41.3719 28.1931 40.965 27.9824 40.5406 27.9824L23.3892 27.9824L29.4177 21.6678C29.6992 21.3728 29.8574 20.9727 29.8574 20.5555C29.8574 20.1383 29.6992 19.7382 29.4177 19.4432C29.1361 19.1482 28.7543 18.9824 28.3561 18.9824C27.958 18.9824 27.5762 19.1482 27.2946 19.4432L18.2986 28.8697C18.159 29.0156 18.0482 29.189 17.9727 29.3799C17.8971 29.5707 17.8582 29.7754 17.8582 29.982C17.8582 30.1887 17.8971 30.3933 17.9727 30.5842C18.0482 30.775 18.159 30.9484 18.2986 31.0943L27.2946 40.5209C27.4339 40.6672 27.5994 40.7832 27.7815 40.8625C27.9637 40.9417 28.1589 40.9824 28.3561 40.9824C28.5534 40.9824 28.7486 40.9417 28.9308 40.8625Z" fill="white"/>
<path d="M54.9995 58.9824L4.99951 58.9824V60.9824L54.9995 60.9824V58.9824ZM0.999512 54.9824L0.999512 4.98242H-1.00049L-1.00049 54.9824H0.999512ZM4.99951 0.982422L54.9995 0.982422V-1.01758L4.99951 -1.01758V0.982422ZM58.9995 4.98242L58.9995 54.9824H60.9995L60.9995 4.98242H58.9995ZM54.9995 0.982422C57.2087 0.982422 58.9995 2.77328 58.9995 4.98242H60.9995C60.9995 1.66871 58.3132 -1.01758 54.9995 -1.01758V0.982422ZM0.999512 4.98242C0.999512 2.77328 2.79037 0.982422 4.99951 0.982422V-1.01758C1.6858 -1.01758 -1.00049 1.66871 -1.00049 4.98242H0.999512ZM4.99951 58.9824C2.79037 58.9824 0.999512 57.1916 0.999512 54.9824H-1.00049C-1.00049 58.2961 1.6858 60.9824 4.99951 60.9824V58.9824ZM54.9995 60.9824C58.3132 60.9824 60.9995 58.2961 60.9995 54.9824H58.9995C58.9995 57.1916 57.2087 58.9824 54.9995 58.9824V60.9824Z" fill="#20113D"/>
</svg>
