<svg width="61" height="60" viewBox="0 0 61 60" fill="none" xmlns="http://www.w3.org/2000/svg">
<path d="M1.07485 4.89255C1.08313 2.13114 3.32841 -0.100711 6.08982 -0.092432L56.0896 0.0574668C58.851 0.0657455 61.0829 2.31102 61.0746 5.07243L60.9247 55.0722C60.9164 57.8336 58.6711 60.0655 55.9097 60.0572L5.90994 59.9073C3.14853 59.899 0.916676 57.6537 0.924955 54.8923L1.07485 4.89255Z" fill="#20113D"/>
<path fill-rule="evenodd" clip-rule="evenodd" d="M32.101 19.1056C31.9186 19.1843 31.7528 19.2999 31.6131 19.4458C31.473 19.5913 31.3617 19.7643 31.2856 19.955C31.2094 20.1456 31.1699 20.3501 31.1693 20.5568C31.1687 20.7634 31.207 20.9681 31.282 21.1592C31.357 21.3503 31.4673 21.524 31.6064 21.6704L37.6152 28.0022L20.4646 27.9508C20.0403 27.9495 19.6327 28.159 19.3315 28.5332C19.0303 28.9074 18.8602 29.4156 18.8586 29.946C18.857 30.4764 19.0241 30.9856 19.323 31.3616C19.6219 31.7376 20.0283 31.9495 20.4526 31.9508L37.604 32.0022L31.5566 38.2987C31.2742 38.5929 31.1148 38.9925 31.1136 39.4097C31.1123 39.8269 31.2693 40.2275 31.5499 40.5233C31.8306 40.8192 32.2119 40.9861 32.6101 40.9873C33.0082 40.9885 33.3905 40.8239 33.673 40.5297L42.6972 31.1302C42.8372 30.9847 42.9485 30.8116 43.0247 30.621C43.1008 30.4304 43.1404 30.2259 43.141 30.0192C43.1416 29.8126 43.1033 29.6078 43.0283 29.4167C42.9533 29.2256 42.843 29.0519 42.7038 28.9056L33.7362 19.4521C33.5973 19.3054 33.4322 19.1888 33.2503 19.1091C33.0684 19.0293 32.8732 18.988 32.676 18.9874C32.4788 18.9868 32.2834 19.027 32.101 19.1056Z" fill="white"/>
<path d="M6.08682 0.907563L56.0866 1.05746L56.0926 -0.942529L6.09282 -1.09243L6.08682 0.907563ZM60.0746 5.06944L59.9247 55.0692L61.9247 55.0752L62.0746 5.07543L60.0746 5.06944ZM55.9127 59.0572L5.91294 58.9073L5.90694 60.9073L55.9067 61.0572L55.9127 59.0572ZM1.92495 54.8953L2.07485 4.89555L0.0748584 4.88956L-0.0750404 54.8893L1.92495 54.8953ZM5.91294 58.9073C3.70381 58.9007 1.91833 57.1045 1.92495 54.8953L-0.0750404 54.8893C-0.0849748 58.203 2.59325 60.8974 5.90694 60.9073L5.91294 58.9073ZM59.9247 55.0692C59.9181 57.2783 58.1218 59.0638 55.9127 59.0572L55.9067 61.0572C59.2204 61.0671 61.9147 58.3889 61.9247 55.0752L59.9247 55.0692ZM56.0866 1.05746C58.2957 1.06409 60.0812 2.86031 60.0746 5.06944L62.0746 5.07543C62.0845 1.76174 59.4063 -0.932594 56.0926 -0.942529L56.0866 1.05746ZM6.09282 -1.09243C2.77913 -1.10236 0.0847928 1.57586 0.0748584 4.88956L2.07485 4.89555C2.08147 2.68642 3.87769 0.900941 6.08682 0.907563L6.09282 -1.09243Z" fill="#20113D"/>
</svg>
