<svg width="65" height="61" viewBox="0 0 65 61" fill="none" xmlns="http://www.w3.org/2000/svg">
<path fill-rule="evenodd" clip-rule="evenodd" d="M31.3639 19.18C31.5461 19.2592 31.7115 19.3753 31.8508 19.5216C31.9904 19.6676 32.1012 19.8409 32.1768 20.0318C32.2524 20.2227 32.2913 20.4273 32.2913 20.634C32.2913 20.8406 32.2524 21.0452 32.1768 21.2361C32.1012 21.427 31.9904 21.6003 31.8508 21.7463L25.8231 28.0601H42.9737C43.3981 28.0601 43.805 28.2708 44.1051 28.6458C44.4052 29.0209 44.5737 29.5296 44.5737 30.0601C44.5737 30.5905 44.4052 31.0992 44.1051 31.4743C43.805 31.8493 43.3981 32.0601 42.9737 32.0601H25.8223L31.8508 38.3747C32.1323 38.6697 32.2905 39.0698 32.2905 39.487C32.2905 39.9042 32.1323 40.3043 31.8508 40.5993C31.5692 40.8943 31.1874 41.0601 30.7893 41.0601C30.3911 41.0601 30.0093 40.8943 29.7277 40.5993L20.7317 31.1728C20.5921 31.0269 20.4813 30.8535 20.4058 30.6626C20.3302 30.4717 20.2913 30.2671 20.2913 30.0605C20.2913 29.8538 20.3302 29.6492 20.4058 29.4583C20.4813 29.2675 20.5921 29.0941 20.7317 28.9481L29.7277 19.5216C29.867 19.3753 30.0325 19.2592 30.2146 19.18C30.3968 19.1008 30.592 19.0601 30.7893 19.0601C30.9865 19.0601 31.1817 19.1008 31.3639 19.18Z" fill="white"/>
</svg>
